<?xml version="1.0" standalone="no"?>
<!DOCTYPE svg PUBLIC "-//W3C//DTD SVG 20010904//EN"
 "http://www.w3.org/TR/2001/REC-SVG-20010904/DTD/svg10.dtd">
<svg version="1.0" xmlns="http://www.w3.org/2000/svg"
 width="768.000000pt" height="768.000000pt" viewBox="0 0 768.000000 768.000000"
 preserveAspectRatio="xMidYMid meet">
<metadata>
Created by potrace 1.14, written by Peter Selinger 2001-2017
</metadata>
<g transform="translate(0.000000,768.000000) scale(0.100000,-0.100000)"
fill="#000000" stroke="none">
<path d="M3639 7676 c-4 -3 -69 -12 -159 -21 -33 -3 -59 -7 -120 -20 -14 -3
-47 -9 -75 -14 -82 -16 -284 -77 -386 -116 -168 -67 -339 -155 -513 -268 -22
-14 -24 -15 -121 -88 -366 -277 -647 -642 -827 -1074 -40 -95 -90 -240 -104
-297 -2 -10 -6 -26 -8 -35 -18 -70 -46 -207 -51 -248 -4 -27 -8 -61 -11 -75
-18 -97 -24 -418 -10 -545 3 -33 7 -67 7 -75 1 -17 15 -118 24 -170 12 -69 46
-206 72 -290 15 -47 27 -87 28 -90 3 -8 14 -38 53 -135 47 -117 141 -298 210
-405 62 -95 188 -264 230 -309 147 -156 224 -229 332 -317 94 -76 96 -77 112
-62 16 15 110 78 156 104 17 10 32 22 32 26 0 4 9 8 19 8 11 0 23 5 26 11 7
10 286 149 300 149 4 0 21 6 38 14 34 15 208 74 242 82 11 3 30 7 42 10 12 2
33 8 45 13 13 5 26 9 31 9 6 0 83 14 97 17 3 1 25 5 50 9 25 5 53 10 64 12
138 26 713 25 756 -1 3 -2 23 -6 45 -9 22 -3 51 -8 65 -11 14 -2 36 -6 50 -9
98 -16 340 -91 455 -141 130 -56 320 -157 422 -224 l123 -80 87 71 c159 130
338 308 402 400 8 13 26 34 38 48 13 14 23 28 23 32 0 3 6 13 13 20 16 17 118
172 143 218 10 19 21 37 24 40 19 18 166 342 174 382 2 7 6 21 9 31 4 9 10 25
14 35 7 19 6 17 28 92 17 59 23 83 30 115 3 11 7 31 10 45 13 58 24 117 31
165 3 22 7 51 10 65 11 61 18 207 17 345 -1 162 -3 200 -27 375 -20 152 -88
397 -153 554 -25 61 -50 126 -57 144 -6 17 -14 32 -18 32 -5 0 -8 5 -8 12 0
18 -127 235 -195 333 -131 188 -302 374 -470 512 -110 90 -96 80 -175 133 -36
25 -66 48 -68 53 -2 4 -7 7 -11 7 -4 0 -46 23 -92 51 -112 67 -283 150 -305
148 -4 0 -10 4 -13 9 -6 9 -280 105 -331 116 -14 3 -52 12 -85 20 -33 8 -80
17 -105 21 -24 4 -47 8 -50 10 -3 2 -30 6 -60 9 -30 4 -68 9 -85 12 -33 5
-481 15 -486 10z m346 -1271 c72 -7 112 -14 180 -32 33 -8 65 -16 70 -18 26
-6 219 -87 225 -94 3 -3 19 -13 35 -21 108 -53 314 -230 391 -335 16 -22 32
-44 37 -50 42 -56 117 -191 110 -199 -4 -3 -2 -6 4 -6 6 0 20 -28 32 -62 12
-35 26 -72 31 -83 15 -35 48 -188 56 -260 12 -111 5 -349 -11 -375 -2 -3 -6
-25 -10 -49 -15 -101 -98 -313 -156 -398 -16 -23 -29 -46 -29 -51 0 -6 -3 -12
-7 -14 -5 -1 -21 -23 -38 -47 -35 -53 -181 -203 -245 -252 -116 -90 -256 -166
-385 -209 -38 -12 -77 -25 -85 -28 -21 -7 -19 -7 -75 -17 -27 -4 -57 -10 -65
-12 -62 -15 -267 -21 -355 -9 -97 12 -149 23 -255 54 -105 31 -228 90 -322
153 -32 22 -60 39 -62 39 -9 0 -77 61 -162 146 -148 148 -265 343 -322 539
-77 263 -75 534 8 786 25 76 81 203 91 207 5 2 9 10 9 18 0 30 130 204 220
294 82 82 243 210 265 210 4 0 20 9 36 21 16 11 29 17 29 12 0 -4 4 -3 8 2 12
17 159 78 242 100 87 24 147 34 240 42 41 3 76 6 78 8 3 3 129 -4 187 -10z"/>
<path d="M1197 2079 c-119 -24 -215 -76 -302 -163 -38 -39 -81 -93 -95 -121
-14 -27 -29 -53 -35 -57 -5 -4 -6 -8 -1 -8 5 0 4 -6 -2 -13 -37 -44 -50 -266
-23 -367 33 -117 132 -261 225 -325 15 -11 34 -26 41 -33 8 -6 20 -12 29 -12
8 0 18 -4 21 -10 8 -12 128 -50 180 -56 92 -11 110 -10 183 1 135 22 242 76
336 169 64 62 137 181 151 246 2 8 8 35 14 59 10 46 8 193 -3 244 -13 57 -47
135 -85 193 -40 62 -129 149 -178 175 -15 8 -30 17 -33 20 -5 6 -112 48 -135
53 -98 23 -191 25 -288 5z m261 -298 c175 -89 230 -291 126 -455 -16 -24 -46
-55 -66 -68 -21 -13 -38 -26 -38 -30 0 -5 -8 -8 -18 -8 -10 0 -23 -5 -30 -12
-19 -19 -165 -20 -209 -1 -21 9 -41 17 -46 17 -24 2 -109 93 -134 143 -24 50
-28 70 -27 138 0 88 18 134 75 199 27 31 129 103 129 91 0 -2 10 0 23 5 38 17
168 5 215 -19z"/>
<path d="M2812 2093 c-4 -1 -32 -4 -62 -7 -104 -9 -135 -17 -211 -54 l-76 -37
2 38 c2 28 -1 37 -14 38 -9 0 -74 1 -146 2 l-130 1 0 -568 0 -569 143 -1 c88
-1 142 3 143 9 1 6 3 152 4 325 2 173 5 330 8 349 12 70 94 152 167 165 14 2
25 5 25 6 0 4 48 10 120 15 133 10 120 -5 119 145 -1 72 -4 134 -8 137 -6 7
-65 11 -84 6z"/>
<path d="M4213 2089 c-76 -10 -157 -38 -220 -76 -30 -18 -58 -33 -61 -33 -14
0 -133 -135 -160 -182 -122 -215 -99 -493 56 -670 15 -17 37 -43 50 -56 l23
-26 -37 -35 c-20 -20 -49 -54 -63 -76 -14 -22 -28 -42 -31 -45 -3 -3 -15 -27
-28 -55 -75 -168 -62 -379 33 -540 35 -60 177 -205 200 -205 7 0 18 -7 25 -15
6 -8 15 -14 18 -13 4 1 25 -6 47 -16 111 -49 294 -57 415 -17 131 42 253 134
322 243 44 70 58 96 58 107 0 5 5 22 12 38 13 32 15 41 24 108 11 82 3 168
-23 250 -9 28 -20 55 -24 61 -5 6 -6 14 -2 17 3 4 1 7 -5 7 -7 0 -12 5 -12 11
0 16 -55 92 -99 137 l-39 39 54 58 c55 58 127 189 138 250 3 17 7 41 11 55 4
19 9 525 6 645 -1 19 -7 20 -133 18 -73 -1 -139 -2 -145 -2 -8 -1 -13 -14 -13
-32 0 -30 -1 -31 -22 -17 -25 15 -114 50 -138 54 -8 2 -28 5 -45 8 -51 10
-138 12 -192 5z m187 -296 c130 -47 212 -166 205 -296 -1 -34 -5 -69 -7 -77
-3 -8 -8 -27 -13 -42 -4 -16 -11 -28 -16 -28 -5 0 -9 -6 -9 -13 0 -23 -84 -96
-140 -120 -73 -32 -171 -34 -243 -4 -63 27 -141 103 -169 165 -34 78 -26 223
17 281 31 42 107 111 129 117 14 3 26 10 26 16 0 5 4 7 8 4 4 -2 14 -1 21 4
23 14 144 9 191 -7z m23 -916 c112 -51 187 -162 187 -278 0 -47 -26 -143 -45
-167 -40 -52 -88 -93 -135 -117 -107 -55 -264 -31 -346 52 -73 74 -101 140
-99 233 5 222 237 369 438 277z"/>
<path d="M6381 2089 c-67 -9 -134 -34 -187 -70 l-42 -29 0 36 c0 19 -3 38 -6
41 -3 4 -69 7 -146 7 -118 1 -140 -1 -141 -14 0 -8 -1 -264 -2 -568 l-2 -552
25 -1 c14 0 80 -2 147 -2 103 -2 123 0 123 13 1 8 2 168 3 355 2 320 4 343 23
385 39 84 113 125 224 121 52 -2 116 -24 151 -53 24 -19 58 -90 65 -135 3 -22
7 -185 7 -363 l2 -324 135 1 c74 1 140 2 146 2 17 1 11 751 -6 816 -43 163
-137 265 -295 319 -49 17 -155 24 -224 15z"/>
<path d="M3129 2069 c-5 -3 -9 -16 -9 -30 -1 -37 -2 -162 -1 -179 0 -8 0 -64
0 -125 0 -121 0 -119 1 -188 1 -26 -1 -51 -5 -56 -3 -5 -1 -12 5 -16 6 -4 8
-11 5 -16 -4 -5 -6 -44 -5 -86 1 -43 1 -91 0 -108 -1 -16 -2 -37 -1 -45 0 -8
0 -64 0 -125 0 -152 -1 -147 5 -152 4 -5 189 -7 266 -4 l25 1 0 559 c0 308 -4
563 -8 567 -9 9 -264 12 -278 3z"/>
<path d="M5229 2070 c-1 -3 -2 -256 -3 -564 -1 -517 0 -559 16 -565 9 -3 74
-6 143 -5 138 1 149 6 135 54 -4 15 -4 33 0 40 4 7 5 24 1 39 -3 14 -5 40 -4
56 6 61 5 134 -2 144 -3 6 -2 11 4 11 6 0 7 11 3 28 -4 15 -6 38 -5 52 4 35 5
90 4 123 -2 57 -3 83 -2 97 0 8 0 92 0 185 0 94 0 177 1 185 2 64 1 113 -4
117 -7 7 -286 10 -287 3z"/>
</g>
</svg>
