<svg width="39" height="48" viewBox="0 0 39 48" fill="none" xmlns="http://www.w3.org/2000/svg">
<path fill-rule="evenodd" clip-rule="evenodd" d="M26.1336 38.6172V35.0449H24.3196V35.4445C24.3162 35.4409 24.3125 35.4376 24.3057 35.4342C23.7382 35.1004 23.0663 34.9092 22.3453 34.9092C20.2493 34.9092 18.5711 36.5528 18.5711 38.6172C18.5711 39.7501 19.0865 40.7682 19.9013 41.4494C19.0865 42.1239 18.5711 43.1383 18.5711 44.2781C18.5711 46.325 20.2493 48.0001 22.3453 48.0001C24.4554 48.0001 26.1336 46.325 26.1336 44.2781C26.1336 43.1383 25.6219 42.1273 24.8036 41.4494C25.6219 40.7682 26.1336 39.7501 26.1336 38.6172V38.6172ZM20.3852 38.6172C20.3852 37.5713 21.2661 36.6746 22.3453 36.6746C23.3621 36.6746 24.1943 37.4495 24.3057 38.3984C24.3162 38.4713 24.3196 38.544 24.3196 38.6172C24.3196 38.6901 24.3162 38.7666 24.3057 38.8363C24.1943 39.7989 23.3621 40.5737 22.3453 40.5737C21.2661 40.5737 20.3852 39.6773 20.3852 38.6172V38.6172ZM24.3057 44.5004C24.1943 45.4633 23.3621 46.2382 22.3453 46.2382C21.2661 46.2382 20.3852 45.3417 20.3852 44.2781C20.3852 43.2324 21.2661 42.3357 22.3453 42.3357C23.3621 42.3357 24.1943 43.1106 24.3057 44.0593C24.3162 44.1324 24.3196 44.2051 24.3196 44.2781C24.3196 44.3548 24.3162 44.4278 24.3057 44.5004V44.5004ZM36.886 38.346C36.886 36.9713 36.1526 36.6725 35.4189 36.6725C34.6852 36.6725 33.9514 36.9564 33.9514 38.3164V42.1418H32.1102V35.0437H33.9514V35.5667C34.3558 35.2679 34.8498 34.9092 35.8229 34.9092C37.3802 34.9092 38.7273 35.8206 38.7273 38.0471V42.1418H36.886V38.346ZM28.1577 42.1418H29.999V35.0438H28.1577V42.1418ZM15.0014 42.1418H16.8427V35.0438H15.0014V42.1418ZM9.05788 35.0438H10.8994V35.5667C11.588 35.0587 12.2619 34.9093 13.6392 34.9093V36.6724C11.2887 36.6724 10.8994 37.3299 10.8994 38.555V42.1417H9.05788V35.0438ZM3.77271 42.3357C1.6767 42.3357 0 40.6622 0 38.615C0 36.5528 1.6767 34.9092 3.77271 34.9092C5.8839 34.9092 7.5606 36.5528 7.5606 38.615C7.5606 40.6622 5.8839 42.3357 3.77271 42.3357V42.3357ZM3.77271 36.6725C2.69474 36.6725 1.81147 37.5691 1.81147 38.615C1.81147 39.676 2.69474 40.5725 3.77271 40.5725C4.86559 40.5725 5.74895 39.676 5.74895 38.615C5.74895 37.5691 4.86559 36.6725 3.77271 36.6725V36.6725Z" fill="#FF373C"/>
<path fill-rule="evenodd" clip-rule="evenodd" d="M11.2174 16.1568C11.2174 11.6022 14.9255 7.91015 19.4997 7.91015C24.0743 7.91015 27.7823 11.6022 27.7823 16.1568C27.7823 20.7114 24.0743 24.4036 19.4997 24.4036C14.9255 24.4036 11.2174 20.7114 11.2174 16.1568M3.27271 16.1568C3.27271 21.5034 5.88277 26.2413 9.90128 29.1818C12.5896 27.2147 15.908 26.0504 19.4997 26.0504C23.092 26.0504 26.4102 27.2147 29.0984 29.1818C33.1171 26.2413 35.7272 21.5034 35.7272 16.1568C35.7272 7.23356 28.4617 0 19.4997 0C10.5377 0 3.27271 7.23356 3.27271 16.1568" fill="url(#paint0_linear_1427_10238)"/>
<defs>
<linearGradient id="paint0_linear_1427_10238" x1="35.7272" y1="29.1818" x2="35.7272" y2="0" gradientUnits="userSpaceOnUse">
<stop stop-color="#FFC72C"/>
<stop offset="1" stop-color="#FF373C"/>
</linearGradient>
</defs>
</svg>
