<svg width="96" height="96" viewBox="0 0 96 96" fill="none" xmlns="http://www.w3.org/2000/svg">
<mask id="mask0_1697_16884" style="mask-type:alpha" maskUnits="userSpaceOnUse" x="0" y="0" width="96" height="96">
<circle cx="48" cy="48" r="48" fill="#C4C4C4"/>
</mask>
<g mask="url(#mask0_1697_16884)">
<circle cx="48" cy="48" r="48" fill="#F1F1F1"/>
<g clip-path="url(#clip0_1697_16884)">
<path d="M-65.1172 48.5557V48.5445H-64.989C-64.989 48.5445 -63.2136 43.2163 -61.5485 39.0967C-60.1237 35.5669 -57.2804 31.3162 -56.4966 30.17C-46.813 29.6904 -31.5046 29.0893 -19.1546 29.2732C-7.14551 29.4522 1.41019 29.3947 6.92466 29.3707C7.81885 30.2483 14.1934 36.5549 17.84 41.2276C21.0175 45.3025 23.2425 49.6907 23.9793 51.2174L-65.1156 48.5493L-65.1172 48.5557Z" fill="url(#paint0_linear_1697_16884)"/>
<path d="M-82.832 70.2216C-82.7898 66.2922 -82.6227 60.2158 -82.0092 57.8435C-81.068 54.2146 -77.4815 48.1431 -77.4815 48.1431L32.2593 51.4218C32.2593 51.4218 34.4323 49.9527 35.8815 49.2142C37.3307 48.4756 36.8358 47.2734 36.8358 47.2734C36.8358 47.2734 53.6015 49.2829 60.6625 51.8711C67.7236 54.4592 71.388 57.0762 74.0803 59.7043C76.7726 62.3324 78.9959 66.8981 79.2507 68.3368C79.3364 68.8771 79.3943 69.4214 79.4244 69.9674L77.0712 69.5758L75.3705 69.3503C75.3705 69.3503 70.9222 60.2206 58.3029 60.3421C36.2093 60.5564 36.1753 83.4917 36.1753 83.4917L-41.0224 82.0705C-41.0224 82.0705 -47.0448 59.1943 -64.7469 61.0551C-75.1332 62.1486 -79.6334 67.3569 -81.5273 70.9665L-81.4153 70.3942C-81.4153 70.3942 -82.0206 70.2967 -82.832 70.2248V70.2216Z" fill="#DF0613"/>
<path d="M13.5742 29.3721L13.868 29.3913C16.7891 29.6055 20.1792 29.5703 20.1792 29.5703C20.1792 29.5703 25.7976 33.6196 29.7216 38.4107C33.6457 43.2017 36.8362 47.2734 36.8362 47.2734C36.8362 47.2734 37.3328 48.4755 35.882 49.2141C34.4312 49.9527 32.2598 51.4218 32.2598 51.4218C32.2598 51.4218 27.586 44.228 22.93 38.9526C19.298 34.8473 14.2672 30.0307 13.5742 29.3721Z" fill="url(#paint1_linear_1697_16884)"/>
<path d="M-86.9911 71.1698C-87.0041 69.4801 -81.415 70.3913 -81.415 70.3913L-81.5269 70.9636C-79.6331 67.3571 -75.1345 62.1488 -64.7466 61.0522C-47.0445 59.1946 -41.0221 82.0708 -41.0221 82.0708L36.1772 83.4936C36.1772 83.4936 36.2096 60.5582 58.3097 60.344C70.929 60.2225 75.3773 69.3522 75.3773 69.3522L77.078 69.5776L79.7525 70.0332C79.7525 70.0332 80.2767 74.6148 79.7996 75.5868C79.7152 75.7594 79.4474 75.8729 79.0693 75.9417C79.0693 77.3645 79.019 80.9597 78.6424 82.1155C78.1702 83.5687 78.1734 84.0515 76.9612 84.3057C75.7489 84.5598 75.0137 84.3232 75.0137 84.3232L73.24 75.6491C73.24 75.6491 69.681 66.3164 58.6002 66.8567C40.1613 67.7616 40.8267 88.7578 40.8267 88.7578L-45.5872 88.3917C-45.5872 88.3917 -47.9257 67.6529 -64.6882 67.8143C-77.0673 67.9342 -79.8505 82.9292 -80.8161 83.6694C-81.7817 84.4096 -84.2095 84.1858 -84.711 83.225C-85.0063 82.6495 -84.9723 79.9143 -84.8976 77.8057C-85.4023 77.8057 -85.8892 77.7641 -86.2154 77.6058C-87.1891 77.1263 -86.9846 72.8659 -86.9992 71.1762L-86.9911 71.1698Z" fill="#5C686D"/>
<path d="M73.7462 58.7451C73.7462 58.7451 72.469 60.689 72.4885 62.9399C72.508 65.1907 75.3756 69.3503 75.3756 69.3503L79.7573 70.0314C79.7573 70.0314 79.9764 67.3745 78.0013 63.5314C76.0263 59.6883 73.7527 58.7451 73.7527 58.7451H73.7462Z" fill="#E1E8EC"/>
<path d="M22.9287 38.9592C19.2968 34.8475 14.2659 30.0309 13.5729 29.3723L13.8667 29.3915C16.7878 29.6057 20.178 29.5705 20.178 29.5705C20.178 29.5705 16.0235 26.2326 9.70892 25.809C3.39439 25.3853 -21.3671 24.9057 -32.7758 25.016C-38.1312 25.0688 -43.4867 25.1535 -48.8324 25.5404C-52.7726 25.8249 -57.044 25.9321 -60.9161 26.7378C-61.9856 26.96 -62.6834 26.8752 -63.8194 27.9735C-64.5191 28.6694 -65.1509 29.4283 -65.7068 30.2403C-66.6286 31.3322 -68.4235 33.4935 -70.7847 36.4909C-73.4608 39.888 -76.9516 47.1441 -77.4238 48.1448L-66.132 48.4821L-64.9765 48.5045C-64.9765 48.5045 -63.2027 43.1763 -61.5393 39.0567C-60.1128 35.5254 -57.2696 31.2762 -56.4906 30.13C-46.8087 29.6504 -31.4986 29.0446 -19.1519 29.23C-7.14281 29.4074 1.41451 29.3483 6.92896 29.3243C7.82153 30.2036 14.1994 36.5085 17.8459 41.1813C21.0219 45.2497 23.2468 49.6427 23.9819 51.1742L32.2585 51.422C32.2585 51.422 27.5847 44.225 22.9287 38.9592Z" fill="#5C686D"/>
<path d="M21.9652 52.4321C21.9652 52.4321 24.328 54.894 24.5309 55.842C24.6932 56.6109 24.7905 57.7715 22.848 57.7907C20.9054 57.8099 17.7344 55.9091 17.7344 55.9091L21.9652 52.4321Z" fill="#808E97"/>
<path d="M17.2261 46.8882C17.2261 46.8882 22.2926 49.5882 22.3088 51.5242C22.3251 53.4601 18.2744 55.8404 17.3056 56.0866C16.3367 56.3328 15.7103 53.5161 15.733 51.3435C15.7574 48.8944 17.2261 46.893 17.2261 46.893V46.8882Z" fill="#5C686D"/>
<path d="M68.6907 82.9513C68.6917 85.0553 68.0592 87.1124 66.8732 88.8623C65.6872 90.6122 64.0011 91.9763 62.028 92.7822C60.0549 93.588 57.8836 93.7993 55.7885 93.3894C53.6935 92.9795 51.769 91.9668 50.2583 90.4794C48.7476 88.9919 47.7187 87.0966 47.3016 85.033C46.8845 82.9695 47.0981 80.8304 47.9153 78.8865C48.7324 76.9425 50.1165 75.2809 51.8924 74.1119C53.6683 72.9428 55.7563 72.3188 57.8922 72.3188C60.7553 72.3188 63.5012 73.4389 65.5262 75.4327C67.5512 77.4265 68.6894 80.1309 68.6907 82.9513Z" fill="#F7F7F7"/>
<path d="M57.8839 65.8877C53.2927 65.8974 48.8924 67.6989 45.6466 70.8977C42.4009 74.0965 40.5741 78.4318 40.5664 82.9545C40.5653 83.73 40.6196 84.5046 40.7287 85.2725C40.7579 85.4724 40.7871 85.6738 40.8228 85.8736H47.9537C47.663 84.9271 47.5159 83.9434 47.5171 82.9545C47.5512 80.2676 48.6587 77.7022 50.5996 75.8141C52.5405 73.9259 55.1585 72.8672 57.8863 72.8672C60.6142 72.8672 63.2322 73.9259 65.1731 75.8141C67.114 77.7022 68.2215 80.2676 68.2556 82.9545C68.2565 83.9433 68.11 84.9268 67.8207 85.8736H74.9612C74.9986 85.6738 75.0278 85.4724 75.057 85.2725C75.1661 84.5046 75.2204 83.73 75.2193 82.9545C75.209 78.4296 73.379 74.093 70.1299 70.8943C66.8808 67.6955 62.4775 65.8953 57.8839 65.8877Z" fill="#3C3C3C"/>
<path d="M57.8877 67.918C53.8428 67.9264 49.9662 69.5137 47.1069 72.332C44.2476 75.1504 42.6388 78.9701 42.6328 82.9546C42.6327 83.6382 42.682 84.3209 42.7805 84.9976C43.2771 88.5997 45.0824 91.9023 47.8618 94.2935C50.6412 96.6847 54.2063 98.0024 57.8966 98.0024C61.5868 98.0024 65.152 96.6847 67.9314 94.2935C70.7108 91.9023 72.5161 88.5997 73.0127 84.9976C73.1113 84.3209 73.1607 83.6382 73.1604 82.9546C73.1543 78.967 71.5431 75.1447 68.6799 72.3258C65.8168 69.507 61.9356 67.9218 57.8877 67.918ZM58.5709 90.0636C58.3435 90.0884 58.1148 90.1001 57.886 90.0988H57.8292C57.7312 90.1005 57.6332 90.0973 57.5355 90.0892C56.0378 90.0138 54.6004 89.4841 53.4203 88.5726C52.2401 87.6611 51.375 86.4124 50.9435 84.9976C50.7408 84.335 50.638 83.6466 50.6384 82.9546C50.6408 81.1222 51.3563 79.3605 52.6375 78.0321C53.9187 76.7037 55.6682 75.9097 57.5258 75.8135C57.628 75.8039 57.7335 75.8039 57.8406 75.8039C57.9477 75.8039 58.0905 75.8039 58.2122 75.8135C60.08 75.895 61.8439 76.6827 63.137 78.0128C64.4302 79.3429 65.1529 81.1129 65.1548 82.9546C65.1551 83.6466 65.0523 84.335 64.8497 84.9976C64.4344 86.362 63.6149 87.5732 62.4962 88.4758C61.3775 89.3784 60.0107 89.9313 58.5709 90.0636Z" fill="#676767"/>
</g>
</g>
<defs>
<linearGradient id="paint0_linear_1697_16884" x1="-21.1578" y1="45.8188" x2="-21.5033" y2="25.8236" gradientUnits="userSpaceOnUse">
<stop stop-color="#E4E9EC"/>
<stop offset="0.41" stop-color="#E0E6EA"/>
<stop offset="0.86" stop-color="#D3DCE2"/>
<stop offset="1" stop-color="#CDD8DF"/>
</linearGradient>
<linearGradient id="paint1_linear_1697_16884" x1="24.8702" y1="44.9876" x2="24.5247" y2="24.9924" gradientUnits="userSpaceOnUse">
<stop stop-color="#E4E9EC"/>
<stop offset="0.41" stop-color="#E0E6EA"/>
<stop offset="0.86" stop-color="#D3DCE2"/>
<stop offset="1" stop-color="#CDD8DF"/>
</linearGradient>
<clipPath id="clip0_1697_16884">
<rect width="167" height="74" fill="white" transform="translate(-87 25)"/>
</clipPath>
</defs>
</svg>
