<svg width="96" height="96" viewBox="0 0 96 96" fill="none" xmlns="http://www.w3.org/2000/svg">
<g clip-path="url(#clip0_1697_17136)">
<path d="M48 96C74.5097 96 96 74.5097 96 48C96 21.4903 74.5097 0 48 0C21.4903 0 0 21.4903 0 48C0 74.5097 21.4903 96 48 96Z" fill="#F8F8F8"/>
<path d="M48 96C74.5097 96 96 74.5097 96 48C96 21.4903 74.5097 0 48 0C21.4903 0 0 21.4903 0 48C0 74.5097 21.4903 96 48 96Z" fill="#F8F8F8"/>
<path d="M42.7212 133.594L43.9633 52.8628L51.1471 52.9707L52.7415 133.563C52.8209 136.384 50.5539 138.714 47.7324 138.714C44.9223 138.714 42.6618 136.403 42.7219 133.594" fill="#706E70"/>
<path d="M47.6582 54.072C49.1133 53.9284 48.25 52.9343 48.25 52.9343L70.9571 75.3048L72.7995 74.1292L75.0829 72.5255L61.1969 49.9998L58.9378 49.7804C58.9378 49.7804 55.2323 49.3545 53.5828 49.1937C53.1705 47.9616 53.0247 46.8103 52.4394 45.9634" fill="#D9D9D2"/>
<path d="M41.846 45.6665C41.2693 47.0094 42.5557 46.7343 42.5557 46.7343L12 55.8098L12.1393 57.991L12.4402 60.7661L38.8708 59.4889L40.1544 57.6165C40.1544 57.6165 42.3184 54.5778 43.2561 53.2106C44.5332 53.445 45.6123 53.8745 46.6357 53.7702" fill="#D9D9D2"/>
<path d="M51.9176 45.882C51.1057 44.6656 50.6347 45.8948 50.6347 45.8948L59.6932 15.3341L57.7893 14.2621L55.3001 13L41.9551 35.8494L42.8234 37.9477C42.8234 37.9477 44.1906 41.4174 44.8245 42.9482C43.9318 43.8916 42.9842 44.5619 42.5118 45.4767" fill="#D9D9D2"/>
<path d="M53.5384 47.4253C53.5384 50.6241 50.9456 53.2176 47.7475 53.2176C44.5486 53.2176 41.9551 50.6248 41.9551 47.4253C41.9551 44.2264 44.5479 41.6343 47.7475 41.6343C50.9456 41.6343 53.5384 44.2264 53.5384 47.4253Z" fill="white"/>
<path d="M51.9297 47.5607C51.8975 45.2824 50.0494 43.4343 47.7403 43.4343C45.4463 43.4343 43.5831 45.2824 43.5509 47.5607V47.6251C43.5509 49.9342 45.4312 51.8145 47.7403 51.8145C50.0659 51.8145 51.9297 49.9506 51.9297 47.6251V47.5607ZM47.7403 39.2935C52.3278 39.2935 56.0562 42.989 56.087 47.5607V47.6251C56.087 52.229 52.3442 55.9552 47.7403 55.9552C43.1364 55.9552 39.4102 52.2283 39.4102 47.6251V47.5607C39.4409 42.989 43.1529 39.2935 47.7403 39.2935Z" fill="#FA4616"/>
</g>
<defs>
<clipPath id="clip0_1697_17136">
<rect width="96" height="96" fill="white"/>
</clipPath>
</defs>
</svg>
