<svg width="125" height="142" viewBox="0 0 125 142" fill="none" xmlns="http://www.w3.org/2000/svg">
<path fill-rule="evenodd" clip-rule="evenodd" d="M78.2707 0.606184C75.1389 0.381867 71.7337 0.724774 68.5928 1.04706C51.7436 2.7243 35.7123 10.1263 25.78 20.5519C17.3245 29.4275 15.6966 39.6683 14.7887 49.9545C14.6988 50.9758 14.711 51.9815 14.6997 52.9979C14.6972 53.216 14.6819 53.4117 14.6634 53.5964C13.9927 54.1328 13.668 54.7173 14.1441 55.285C12.8015 57.9743 11.7066 60.7066 10.8076 63.5041C8.16179 71.7385 5.47163 80.1288 8.31956 88.2844C8.40037 83.6491 9.01391 78.8616 9.84591 74.2351C9.89381 73.9695 9.94757 73.7054 10.0046 73.442C10.0104 73.4142 10.0155 73.3865 10.0213 73.3589C10.3352 71.9368 10.7838 70.5445 11.3572 69.1623C11.3632 69.1472 11.3689 69.1324 11.3752 69.1175C11.4509 68.9355 11.5325 68.754 11.6127 68.5726C11.7788 68.1971 11.9503 67.8217 12.1342 67.4471C12.1964 67.3196 12.2556 67.1911 12.3118 67.062C13.1549 65.1422 13.3958 63.0424 14.1283 61.0686C14.3056 60.6188 14.4928 60.1697 14.6909 59.722C14.7026 59.6957 14.7145 59.6695 14.7265 59.6432C15.2626 58.4381 15.8668 57.241 16.5126 56.0522C16.8979 55.7899 17.0645 55.2098 17.3686 54.6689C17.4319 54.5621 17.9375 53.8419 18.0713 53.4411C18.4543 52.7714 18.8357 52.1016 19.222 51.4328C19.2091 51.4377 19.1961 51.4425 19.1832 51.4474C19.572 50.8035 19.9623 50.1621 20.3494 49.5235C20.4346 49.3832 20.5207 49.2426 20.6065 49.1019C20.7459 48.8775 20.8854 48.6534 21.0246 48.4298C22.3266 46.337 23.7212 44.2755 25.1782 42.2325C25.6982 41.5034 26.9983 40.4084 27.1963 39.6243C27.2036 39.595 27.2034 39.5686 27.207 39.5408C30.408 35.5486 34.1683 31.794 38.801 28.6714C38.2542 29.1963 37.1454 30.9108 36.8427 31.2576C35.9166 32.3197 34.8977 33.3223 33.8756 34.3363C32.0453 36.1528 30.2663 38.0171 28.7111 39.9594C25.8672 43.5114 23.469 47.1964 21.2252 50.9375C21.2027 50.9603 21.1779 50.9821 21.1567 51.0053C19.9763 52.2955 19.3258 54.1442 18.5205 55.5714C22.0704 53.986 26.0466 52.8046 29.7054 51.3516C33.354 49.903 36.8893 48.3369 40.2793 46.566C44.785 44.2123 49.443 41.5932 53.6426 38.7251C58.5001 35.9417 62.4705 32.3532 65.9272 28.651C70.0172 24.2706 73.7325 19.8886 75.8201 14.827C76.8455 12.3399 77.5978 9.77474 77.9512 7.21615C77.9667 7.10455 77.9883 6.98315 78.0123 6.85691C78.5256 5.93828 78.9746 5.00576 79.3368 4.06042C79.9121 2.5611 81.4329 0.832405 78.2707 0.606184" fill="#008906"/>
<mask id="mask0_1963_16428" style="mask-type:alpha" maskUnits="userSpaceOnUse" x="7" y="23" width="118" height="119">
<rect x="7" y="23" width="118" height="119" fill="#D9D9D9"/>
</mask>
<g mask="url(#mask0_1963_16428)">
<path fill-rule="evenodd" clip-rule="evenodd" d="M121.947 50.9635C118.802 48.8742 114.206 48.02 109.979 47.6763C93.4691 46.3337 76.9612 49.6801 62.0809 55.4566C53.9272 58.6217 46.3271 62.8787 39.4545 67.3955C35.4875 70.0029 31.8328 72.8754 28.975 76.1682C27.0464 78.3908 25.5442 80.7477 24.341 83.207C22.8746 86.2041 21.5612 89.2769 20.6021 92.3671C20.2244 93.584 17.8806 100.014 20.5668 100.344C20.5168 100.503 20.4804 100.656 20.4675 100.794C15.514 105.125 11.461 110.076 7.81074 115.108C6.02994 117.564 4.34503 120.039 2.69825 122.471C-1.67161 128.925 -5.73417 135.461 -8.91723 142.247C-13.1078 151.181 -16.5613 160.314 -19.2441 169.504C-19.8205 171.479 -20.3501 173.459 -20.8659 175.441C-21.3054 177.132 -21.7458 178.823 -22.1842 180.514C-22.6752 182.41 -23.5904 184.563 -23.5942 186.487C-23.5978 188.162 -21.6499 188.067 -21.2144 186.435C-20.6884 184.464 -20.2793 182.48 -19.7391 180.509C-19.0217 177.893 -18.2998 175.278 -17.5647 172.664C-12.4561 154.508 -4.13045 136.887 7.81074 120.315C12.6431 113.609 17.8821 107.314 24.1785 101.259C29.7144 95.9356 36.0874 90.8641 42.4945 86.179C48.7219 81.6262 55.1292 77.205 62.3558 73.5063C68.2201 70.5048 74.5027 67.9856 80.8987 65.6861C89.0223 62.7657 97.1135 59.9295 105.675 57.8767C110.125 56.8098 114.622 55.8963 119.092 54.8888C119.896 54.7076 120.753 54.538 121.537 54.3161C124.152 53.5759 123.66 52.101 121.947 50.9635Z" fill="#A5BB48"/>
<path fill-rule="evenodd" clip-rule="evenodd" d="M45.3719 102.209C52.1572 101.603 58.2539 101.721 64.6855 103.173C70.2373 104.427 75.3607 106.286 80.3593 108.361C87.3904 111.279 93.0468 114.902 97.2349 119.997C99.7369 123.041 101.77 127.483 100.6 131.152C99.2219 135.473 94.7268 139.375 88.3321 139.207C84.3778 139.104 80.6173 137.492 77.4802 135.939C73.7273 134.081 70.6449 131.719 68.0332 129.024C63.7728 124.627 61.0393 119.47 57.3374 114.808C55.5807 112.596 53.8745 110.362 51.8225 108.293C50.8066 107.269 49.7324 106.26 48.2677 105.562C47.4841 105.189 44.2779 104.708 45.3897 103.614C27.8092 105.358 13.1219 116.832 10.8592 129.61C10.6485 130.801 10.5074 131.996 10.3522 133.189C10.2543 133.943 10.564 136.661 9.72064 137.212C7.86076 138.428 8.39898 135.192 8.44214 134.729C8.55353 133.533 8.67949 132.336 8.817 131.14C9.5653 124.637 12.8461 118.36 18.795 113.238C25.5979 107.381 35.1026 103.127 45.3719 102.209Z" fill="#008906"/>
</g>
</svg>
