<svg width="96" height="96" viewBox="0 0 96 96" fill="none" xmlns="http://www.w3.org/2000/svg">
<mask id="mask0_1697_15025" style="mask-type:alpha" maskUnits="userSpaceOnUse" x="0" y="0" width="96" height="96">
<circle cx="48" cy="48" r="48" fill="#C4C4C4"/>
</mask>
<g mask="url(#mask0_1697_15025)">
<circle cx="48" cy="48" r="48" fill="#F1F1F1"/>
<g clip-path="url(#clip0_1697_15025)">
<path d="M69.4402 80.2013L64.8516 80.2495L64.9629 91.9433L69.5516 91.8951L69.4402 80.2013Z" fill="#C27A30"/>
<path fill-rule="evenodd" clip-rule="evenodd" d="M64.5762 55.4556C64.9385 55.1612 66.3875 54.9121 67.1077 55.0298C67.8726 55.1198 68.6101 55.3815 69.2701 55.7973C69.9302 56.213 70.4973 56.773 70.933 57.4392C71.4135 58.15 71.7241 58.9717 71.8387 59.8351C74.2753 59.8668 77.5098 63.2318 76.2505 67.2535C76.0996 67.7336 75.7503 68.1276 75.7201 68.5714C76.2462 68.6982 77.2985 69.5723 77.6608 69.9663C78.613 70.9921 79.2465 72.2972 79.4775 73.709C79.7085 75.1209 79.5261 76.5732 78.9545 77.8739C78.6121 78.6199 78.1659 79.3083 77.6306 79.9165L76.7077 80.709C76.3678 80.9615 76.0053 81.1784 75.6252 81.3567C73.6069 82.2625 71.7438 82.0768 69.5012 82.0496L65.3568 82.0858C63.2307 82.1628 60.7983 82.3168 58.8879 81.9273L58.7843 81.8413C58.1536 81.6832 57.5567 81.4021 57.0248 81.0125C56.2635 80.4985 55.5924 79.8504 55.041 79.0967C54.222 77.9031 53.7812 76.4692 53.7812 74.998C53.7812 73.5268 54.222 72.0929 55.041 70.8993L55.6016 70.1747C55.6149 70.1585 55.6293 70.1433 55.6447 70.1294L55.8733 69.8712C56.076 69.6765 56.076 69.7173 56.3046 69.5361C56.6194 69.2644 56.7876 69.1692 57.1197 68.9202L57.2059 68.8386L57.6372 68.6077L57.0679 67.4301C56.8803 66.9828 56.7596 66.5077 56.71 66.0216C56.4426 64.4591 57.1671 63.0189 57.9003 61.9456C58.742 60.8486 59.9459 60.1243 61.2727 59.9166C61.3347 59.4174 61.4579 58.9288 61.6393 58.4628C62.2066 57.0959 63.2607 56.0165 64.5762 55.4556V55.4556Z" fill="#A5BB48"/>
<path d="M47.892 75.6984L39.3516 75.855L39.8838 107.878L48.4243 107.722L47.892 75.6984Z" fill="#C27A30"/>
<path fill-rule="evenodd" clip-rule="evenodd" d="M38.7661 26.8837C39.4329 26.3274 42.1241 25.8407 43.4673 26.0493C46.5085 26.546 48.9348 27.8821 50.628 30.4698C51.276 31.4632 52.2976 33.45 52.3543 34.9053C56.8759 34.94 62.9535 41.1288 60.6596 48.6337C60.3853 49.5327 59.7373 50.2728 59.7137 51.1172C60.6974 51.3407 62.665 52.95 63.3508 53.6801C67.0967 57.6536 67.948 63.291 65.9001 68.3672C65.2771 69.7641 64.4559 71.0537 63.4643 72.1917L61.7427 73.6818C61.1185 74.159 60.4498 74.5684 59.7468 74.9036C55.9962 76.5923 52.5293 76.3192 48.3531 76.3092L40.6437 76.4433C36.6898 76.6271 32.1588 76.94 28.621 76.2645L28.4318 76.1056C27.2493 75.8304 26.1263 75.325 25.121 74.6155C23.6973 73.6641 22.4399 72.4628 21.4035 71.0642C18.2252 66.7827 18.2158 60.2712 21.2758 55.801L22.3069 54.44L22.3873 54.3506L22.813 53.8539C23.1866 53.4914 23.1866 53.5659 23.5697 53.2281C24.1467 52.7314 24.4589 52.5327 25.0785 52.0659L25.2298 51.9119L26.048 51.4748L24.9697 49.344C24.616 48.5145 24.3832 47.6337 24.2792 46.7314C23.7589 43.8208 25.0832 41.1337 26.4359 39.1221C27.9829 37.0665 30.21 35.6976 32.6743 35.2877C32.7845 34.3531 33.0069 33.4368 33.3364 32.5609C34.1736 30.1321 36.4627 27.8572 38.7661 26.8837Z" fill="#008906"/>
</g>
</g>
<defs>
<clipPath id="clip0_1697_15025">
<rect width="96" height="96" fill="white" transform="translate(0 6)"/>
</clipPath>
</defs>
</svg>
