<svg width="97" height="96" viewBox="0 0 97 96" fill="none" xmlns="http://www.w3.org/2000/svg">
<path d="M96.5 48C96.5 74.5097 75.0097 96 48.5 96C21.9903 96 0.5 74.5097 0.5 48C0.5 21.4903 21.9903 0 48.5 0C61.2304 0 73.4394 5.05713 82.4411 14.0589C91.4429 23.0606 96.5 35.2696 96.5 48Z" fill="#F8F8F8"/>
<path d="M48.5 0C49.1039 0 49.7066 0.0113791 50.3078 0.0340186L50.308 6.4H47.508L47.5078 0.0100516C47.8377 0.00336127 48.1685 0 48.5 0Z" fill="#FA4616"/>
<path d="M48.9856 66.5279C39.7147 66.5279 32.1993 59.0125 32.1993 49.7414C32.1993 40.4705 39.7147 32.9551 48.9856 32.9551C58.2568 32.9551 65.7718 40.4705 65.7718 49.7414C65.7718 59.0125 58.2568 66.5279 48.9856 66.5279Z" fill="white"/>
<path d="M46.264 80.8793H51.402V70.5283H46.264V80.8793Z" fill="#FFDB8D"/>
<path d="M56.992 69.0329L61.443 66.4639L66.619 75.4289L62.168 77.9989L56.992 69.0329Z" fill="#FFDB8D"/>
<path d="M65.543 62.366L68.112 57.916L77.077 63.092L74.508 67.542L65.543 62.366Z" fill="#FFDB8D"/>
<path d="M36.208 66.4678L40.657 69.0368L35.482 78.0008L31.032 75.4328L36.208 66.4678Z" fill="#FFDB8D"/>
<path d="M29.54 57.917L32.109 62.367L23.144 67.543L20.575 63.093L29.54 57.917Z" fill="#FFDB8D"/>
<path d="M48.9967 32.9648C58.2673 32.9648 65.7836 40.4802 65.7836 49.7512H54.6376C54.6376 46.636 52.112 44.1106 48.9967 44.1106C45.8814 44.1106 43.356 46.636 43.356 49.7512H32.2103C32.2103 40.4802 39.7258 32.9648 48.9967 32.9648Z" fill="#FFC743"/>
<path d="M60.817 37.832L37.077 61.572L37.177 61.671L60.917 37.932" fill="#231F20"/>
<path d="M60.917 61.572L37.177 37.832L37.077 37.932L60.817 61.671" fill="#231F20"/>
<path d="M48.9967 66.5377C39.7257 66.5377 32.2103 59.0223 32.2103 49.7512C32.2103 45.1159 34.0894 40.9191 37.1269 37.8815C37.351 37.6574 37.5814 37.4395 37.8179 37.2283C39.0329 36.1068 41.2483 34.1262 42.5064 32.8681C43.7498 31.6247 43.6965 30.486 43.6965 28.8963C43.6965 27.8818 43.6282 26.4816 44.138 26.1523H53.8555C54.3649 26.4816 54.2964 27.8818 54.2964 28.8963C54.2964 30.486 54.2437 31.6247 55.4874 32.8681C56.7456 34.1262 58.9603 36.1068 60.175 37.2283C60.4122 37.4395 60.6427 37.6574 60.8667 37.8815C63.9035 40.9191 65.7836 45.1159 65.7836 49.7512C65.7836 59.0223 58.2673 66.5377 48.9967 66.5377Z" fill="#FFC72C"/>
<path d="M43.5633 28.5616L42.3199 27.2208V13.279C42.3199 13.279 44.1733 12.9317 45.5364 11.532C46.9936 10.0356 46.8708 8.10192 46.8708 5.33887H51.1229C51.1229 8.10192 51.0001 10.0356 52.4572 11.532C53.8202 12.9317 55.6732 13.279 55.6732 13.279V27.2208L54.4308 28.5616H43.5633Z" fill="#3C3C3C"/>
<path d="M42.32 27.2198H55.673V21.5898H42.32V27.2198Z" fill="#6E6E6E"/>
<path d="M48.9967 66.5384C39.7257 66.5384 32.2103 59.023 32.2103 49.752H43.3561C43.3561 52.8673 45.8814 55.3925 48.9967 55.3925C52.112 55.3925 54.6376 52.8673 54.6376 49.752H65.7836C65.7836 59.023 58.2673 66.5384 48.9967 66.5384Z" fill="#FFDB8D"/>
<path d="M42.3199 13.2791C42.3199 13.2791 44.1733 12.9318 45.5364 11.5321C46.1365 10.9158 46.4687 10.2353 46.6518 9.45508H51.3417C51.5248 10.2353 51.857 10.9158 52.4572 11.5321C53.8202 12.9318 55.6732 13.2791 55.6732 13.2791H42.3199Z" fill="#3C3C3C"/>
<path d="M42.32 20.2491H55.673V14.6191H42.32V20.2491Z" fill="#6E6E6E"/>
</svg>
