<svg width="97" height="96" viewBox="0 0 97 96" fill="none" xmlns="http://www.w3.org/2000/svg">
<path fill-rule="evenodd" clip-rule="evenodd" d="M96.1401 48.0016C96.1401 74.5109 74.6495 96.0003 48.1401 96.0003C21.6295 96.0003 0.140137 74.5109 0.140137 48.0016C0.140137 21.4923 21.6295 0.00292969 48.1401 0.00292969C74.6495 0.00292969 96.1401 21.4923 96.1401 48.0016Z" fill="#F8F8F8"/>
<path d="M32.1084 60.7207C43.6284 60.7207 48.9617 66.2674 48.9084 77.6274C37.4417 77.6274 32.1084 72.0807 32.1084 60.7207ZM66.0817 60.7207C66.0817 72.0807 60.6684 77.6274 49.3084 77.6274C49.3084 66.2674 54.6951 60.7207 66.0817 60.7207Z" fill="#6F6E6F"/>
<path d="M51.5 52H46.5V86H51.5V52Z" fill="#343739"/>
<path d="M28.91 43.6348C28.91 47.9765 32.4298 51.4962 36.7716 51.4962C38.3707 51.482 39.9265 50.9745 41.2263 50.043V50.6386C41.2263 54.9803 44.746 58.5 49.0877 58.5C53.4295 58.5 56.9491 54.9803 56.9491 50.6386V50.043C58.2561 50.952 59.812 51.4346 61.4039 51.4247C65.0841 51.4425 68.281 48.8974 69.0885 45.3068C69.8959 41.7163 68.0964 38.0475 64.7629 36.4881C67.4269 35.2215 69.1541 32.5665 69.2323 29.6178C69.3106 26.6691 67.7267 23.9262 65.1337 22.5201C62.5406 21.1139 59.3777 21.2828 56.9491 22.957V22.3614C56.9491 18.0197 53.4295 14.5 49.0877 14.5C44.746 14.5 41.2263 18.0197 41.2263 22.3614V22.957C39.9194 22.048 38.3634 21.5654 36.7716 21.5753C33.1113 21.5812 29.9425 24.1198 29.1382 27.6906C28.334 31.2614 30.1083 34.9135 33.4126 36.4881C30.6467 37.7886 28.8891 40.5784 28.91 43.6348Z" fill="#FA4616"/>
<path d="M28.91 43.6348C28.91 47.9765 32.4298 51.4962 36.7716 51.4962C38.3707 51.482 39.9265 50.9745 41.2263 50.043V50.6386C41.2263 54.9803 44.746 58.5 49.0877 58.5C53.4295 58.5 56.9491 54.9803 56.9491 50.6386V50.043C58.2561 50.952 59.812 51.4346 61.4039 51.4247C65.0841 51.4425 68.281 48.8974 69.0885 45.3068C69.8959 41.7163 68.0964 38.0475 64.7629 36.4881C67.4269 35.2215 69.1541 32.5665 69.2323 29.6178C69.3106 26.6691 67.7267 23.9262 65.1337 22.5201C62.5406 21.1139 59.3777 21.2828 56.9491 22.957V22.3614C56.9491 18.0197 53.4295 14.5 49.0877 14.5C44.746 14.5 41.2263 18.0197 41.2263 22.3614V22.957C39.9194 22.048 38.3634 21.5654 36.7716 21.5753C33.1113 21.5812 29.9425 24.1198 29.1382 27.6906C28.334 31.2614 30.1083 34.9135 33.4126 36.4881C30.6467 37.7886 28.8891 40.5784 28.91 43.6348Z" fill="#FA4616"/>
<path d="M49.095 44.4212C53.4365 44.4212 56.956 40.9017 56.956 36.5602C56.956 32.2187 53.4365 28.6992 49.095 28.6992C44.7535 28.6992 41.234 32.2187 41.234 36.5602C41.234 40.9017 44.7535 44.4212 49.095 44.4212Z" fill="#FFC72C"/>
<path d="M49.095 44.4212C53.4365 44.4212 56.956 40.9017 56.956 36.5602C56.956 32.2187 53.4365 28.6992 49.095 28.6992C44.7535 28.6992 41.234 32.2187 41.234 36.5602C41.234 40.9017 44.7535 44.4212 49.095 44.4212Z" fill="#FFC72C"/>
</svg>
