<svg width="97" height="96" viewBox="0 0 97 96" fill="none" xmlns="http://www.w3.org/2000/svg">
<path d="M48.5 96C75.0097 96 96.5 74.5097 96.5 48C96.5 21.4903 75.0097 0 48.5 0C21.9903 0 0.5 21.4903 0.5 48C0.5 74.5097 21.9903 96 48.5 96Z" fill="#F8F8F8"/>
<path d="M31.3938 37.6478C23.545 45.4993 23.545 58.2112 31.3363 66.0627C35.5625 56.2843 43.095 48.1165 52.4963 43.256C44.5325 49.9859 38.955 59.3904 37 70.0604C44.475 73.5978 53.675 72.3036 59.8563 66.1202C69.8613 56.1117 71.5 26 71.5 26C71.5 26 41.3988 27.6393 31.3938 37.6478Z" fill="#008906"/>
</svg>
