<svg width="97" height="96" viewBox="0 0 97 96" fill="none" xmlns="http://www.w3.org/2000/svg">
<path d="M48.5 96C21.9903 96 0.5 74.5097 0.5 48C0.5 21.4903 21.9903 0 48.5 0C61.2304 0 73.4394 5.05713 82.4411 14.0589C91.4429 23.0606 96.5 35.2696 96.5 48C96.5 74.5097 75.0097 96 48.5 96Z" fill="#F8F8F8"/>
<path d="M23.8239 37.5753C27.7176 37.5994 31.2402 35.2693 32.7415 31.6767C34.2428 28.084 33.4253 23.9403 30.672 21.1871C27.9187 18.4338 23.7751 17.6163 20.1824 19.1175C16.5897 20.6188 14.2597 24.1414 14.2838 28.0351C14.3169 33.3136 18.6054 37.5753 23.8839 37.5753" fill="#FFC72C"/>
<path d="M8.77595 29.4153H11.524V26.6553H8.77595H6.02795V29.4153H8.77595Z" fill="#FFC72C"/>
<path d="M38.884 29.4153H41.632V26.6553H38.884H36.136V29.4153H38.884Z" fill="#FFC736"/>
<path d="M12.2079 18.3636L14.1519 20.3076L16.1079 18.3636L14.1519 16.4196L12.2079 14.4756L10.2639 16.4196L12.2079 18.3636Z" fill="#FFC72C"/>
<path d="M33.496 39.6517L35.44 41.5957L37.396 39.6517L35.44 37.7077L33.496 35.7637L31.552 37.7077L33.496 39.6517Z" fill="#FFC736"/>
<path d="M22.4559 12.9755V15.7355H25.2039V12.9755V10.2275H22.4559V12.9755Z" fill="#FFC72C"/>
<path d="M22.4559 43.0839V45.8439H25.2039V43.0839V40.3359H22.4559V43.0839Z" fill="#FFC736"/>
<path d="M33.496 16.4196L31.552 18.3636L33.496 20.3076L35.44 18.3636L37.396 16.4196L35.44 14.4756L33.496 16.4196Z" fill="#FFC72C"/>
<path d="M12.2079 37.7077L10.2639 39.6517L12.2079 41.5957L14.1519 39.6517L16.1079 37.7077L14.1519 35.7637L12.2079 37.7077Z" fill="#FFC72C"/>
<path d="M51.4599 65.668H47.4879V82.3H51.4599V65.668Z" fill="#D1D1D1"/>
<path d="M64.564 78.3271H34.36V82.2991H64.564V78.3271Z" fill="#D1D1D1"/>
<path d="M76.4799 26.7637H22.4559V67.6477H76.4799V26.7637Z" fill="#D1D1D1"/>
<path d="M35.476 28.8154H24.448V39.8434H35.476V28.8154Z" fill="#0A5FD2"/>
<path d="M35.476 41.5479H24.448V52.5759H35.476V41.5479Z" fill="#0A5FD2"/>
<path d="M35.476 54.6396H24.448V65.6676H35.476V54.6396Z" fill="#0A5FD2"/>
<path d="M48.436 28.8154H37.408V39.8434H48.436V28.8154Z" fill="#0A5FD2"/>
<path d="M48.436 41.5479H37.408V52.5759H48.436V41.5479Z" fill="#0A5FD2"/>
<path d="M48.436 54.6396H37.408V65.6676H48.436V54.6396Z" fill="#0A5FD2"/>
<path d="M61.384 28.8154H50.356V39.8434H61.384V28.8154Z" fill="#0A5FD2"/>
<path d="M61.384 41.5479H50.356V52.5759H61.384V41.5479Z" fill="#0A5FD2"/>
<path d="M61.384 54.6396H50.356V65.6676H61.384V54.6396Z" fill="#0A5FD2"/>
<path d="M74.332 28.8154H63.304V39.8434H74.332V28.8154Z" fill="#0A5FD2"/>
<path d="M74.332 41.5479H63.304V52.5759H74.332V41.5479Z" fill="#0A5FD2"/>
<path d="M74.332 54.6396H63.304V65.6676H74.332V54.6396Z" fill="#0A5FD2"/>
</svg>
